{
    "asset" : {
        "generator" : "Khronos glTF Blender I/O v0.9.52",
        "version" : "2.0"
    },
    "scene" : 0,
    "scenes" : [
        {
            "name" : "Scene",
            "nodes" : [
                0
            ]
        }
    ],
    "nodes" : [
        {
            "mesh" : 0,
            "name" : "Logo",
            "rotation" : [
                0.7071067690849304,
                0,
                0,
                0.7071067690849304
            ],
            "scale" : [
                5.571155071258545,
                5.5712738037109375,
                5.571134090423584
            ],
            "translation" : [
                0,
                0,
                -1.7037972211837769
            ]
        }
    ],
    "materials" : [
        {
            "doubleSided" : true,
            "name" : "SVGMat.002",
            "pbrMetallicRoughness" : {}
        },
        {
            "doubleSided" : true,
            "name" : "SVGMat.001",
            "pbrMetallicRoughness" : {}
        }
    ],
    "meshes" : [
        {
            "name" : "Fill-9",
            "primitives" : [
                {
                    "attributes" : {
                        "POSITION" : 0,
                        "NORMAL" : 1
                    },
                    "indices" : 2,
                    "material" : 0
                },
                {
                    "attributes" : {
                        "POSITION" : 3,
                        "NORMAL" : 4
                    },
                    "indices" : 5,
                    "material" : 1
                }
            ]
        }
    ],
    "accessors" : [
        {
            "bufferView" : 0,
            "componentType" : 5126,
            "count" : 1461,
            "max" : [
                -0.06902705878019333,
                0.0072050923481583595,
                2.8312206268310547e-07
            ],
            "min" : [
                -0.15396244823932648,
                -0.01065152045339346,
                -0.042606860399246216
            ],
            "type" : "VEC3"
        },
        {
            "bufferView" : 1,
            "componentType" : 5126,
            "count" : 1461,
            "type" : "VEC3"
        },
        {
            "bufferView" : 2,
            "componentType" : 5123,
            "count" : 2748,
            "type" : "SCALAR"
        },
        {
            "bufferView" : 3,
            "componentType" : 5126,
            "count" : 12659,
            "max" : [
                0.1539624184370041,
                0.0072050923481583595,
                -0.003202330321073532
            ],
            "min" : [
                -0.0551530122756958,
                -0.01065152045339346,
                -0.0394059419631958
            ],
            "type" : "VEC3"
        },
        {
            "bufferView" : 4,
            "componentType" : 5126,
            "count" : 12659,
            "type" : "VEC3"
        },
        {
            "bufferView" : 5,
            "componentType" : 5123,
            "count" : 24108,
            "type" : "SCALAR"
        }
    ],
    "bufferViews" : [
        {
            "buffer" : 0,
            "byteLength" : 17532,
            "byteOffset" : 0
        },
        {
            "buffer" : 0,
            "byteLength" : 17532,
            "byteOffset" : 17532
        },
        {
            "buffer" : 0,
            "byteLength" : 5496,
            "byteOffset" : 35064
        },
        {
            "buffer" : 0,
            "byteLength" : 151908,
            "byteOffset" : 40560
        },
        {
            "buffer" : 0,
            "byteLength" : 151908,
            "byteOffset" : 192468
        },
        {
            "buffer" : 0,
            "byteLength" : 48216,
            "byteOffset" : 344376
        }
    ],
    "buffers" : [
        {
            "byteLength" : 392592,
            "uri" : "data:application/octet-stream;base64,"
        }
    ]
}
