{
    "asset" : {
        "generator" : "Khronos glTF Blender I/O v0.9.52",
        "version" : "2.0"
    },
    "scene" : 0,
    "scenes" : [
        {
            "name" : "Scene",
            "nodes" : [
                0,
                1,
                2,
                3,
                4,
                5
            ]
        }
    ],
    "nodes" : [
        {
            "mesh" : 0,
            "name" : "TireBL",
            "translation" : [
                -1.753224492073059,
                1.4627578258514404,
                0.6999997496604919
            ]
        },
        {
            "mesh" : 1,
            "name" : "Body",
            "translation" : [
                -0.2095586359500885,
                -0.2116326242685318,
                1.7154942750930786
            ]
        },
        {
            "mesh" : 2,
            "name" : "SteeringWheel",
            "translation" : [
                0.5501222610473633,
                0.42326533794403076,
                2.4032063484191895
            ]
        },
        {
            "mesh" : 3,
            "name" : "TireBR",
            "translation" : [
                -1.753224492073059,
                -1.8860225677490234,
                0.6999997496604919
            ]
        },
        {
            "mesh" : 4,
            "name" : "TireFR",
            "translation" : [
                1.50106942653656,
                -1.8860225677490234,
                0.6999997496604919
            ]
        },
        {
            "mesh" : 5,
            "name" : "TireFL",
            "translation" : [
                1.5010685920715332,
                1.4627578258514404,
                0.6999997496604919
            ]
        }
    ],
    "materials" : [
        {
            "doubleSided" : true,
            "name" : "Material",
            "occlusionTexture" : {
                "index" : 0,
                "texCoord" : 0
            },
            "pbrMetallicRoughness" : {
                "baseColorFactor" : [
                    1,
                    1,
                    1,
                    1
                ],
                "metallicFactor" : 0,
                "roughnessFactor" : 0.5
            }
        }
    ],
    "meshes" : [
        {
            "name" : "TireBL",
            "primitives" : [
                {
                    "attributes" : {
                        "POSITION" : 0,
                        "NORMAL" : 1,
                        "TEXCOORD_0" : 2
                    },
                    "indices" : 3,
                    "material" : 0
                }
            ]
        },
        {
            "name" : "Body",
            "primitives" : [
                {
                    "attributes" : {
                        "POSITION" : 4,
                        "NORMAL" : 5,
                        "TEXCOORD_0" : 6
                    },
                    "indices" : 7,
                    "material" : 0
                }
            ]
        },
        {
            "name" : "SteeringWheel",
            "primitives" : [
                {
                    "attributes" : {
                        "POSITION" : 8,
                        "NORMAL" : 9,
                        "TEXCOORD_0" : 10
                    },
                    "indices" : 11,
                    "material" : 0
                }
            ]
        },
        {
            "name" : "TireBR",
            "primitives" : [
                {
                    "attributes" : {
                        "POSITION" : 12,
                        "NORMAL" : 13,
                        "TEXCOORD_0" : 14
                    },
                    "indices" : 15,
                    "material" : 0
                }
            ]
        },
        {
            "name" : "TireFR",
            "primitives" : [
                {
                    "attributes" : {
                        "POSITION" : 16,
                        "NORMAL" : 17,
                        "TEXCOORD_0" : 18
                    },
                    "indices" : 19,
                    "material" : 0
                }
            ]
        },
        {
            "name" : "TireFL",
            "primitives" : [
                {
                    "attributes" : {
                        "POSITION" : 20,
                        "NORMAL" : 21,
                        "TEXCOORD_0" : 22
                    },
                    "indices" : 3,
                    "material" : 0
                }
            ]
        }
    ],
    "textures" : [
        {
            "source" : 0
        }
    ],
    "images" : [
        {
            "bufferView" : 4,
            "mimeType" : "image/png",
            "name" : "AO"
        }
    ],
    "accessors" : [
        {
            "bufferView" : 0,
            "componentType" : 5126,
            "count" : 480,
            "max" : [
                0.6827461123466492,
                0.35199612379074097,
                0.6780000925064087
            ],
            "min" : [
                -0.6827465295791626,
                -0.3283006250858307,
                -0.6779999732971191
            ],
            "type" : "VEC3"
        },
        {
            "bufferView" : 1,
            "componentType" : 5126,
            "count" : 480,
            "type" : "VEC3"
        },
        {
            "bufferView" : 2,
            "componentType" : 5126,
            "count" : 480,
            "type" : "VEC2"
        },
        {
            "bufferView" : 3,
            "componentType" : 5123,
            "count" : 672,
            "type" : "SCALAR"
        },
        {
            "bufferView" : 5,
            "componentType" : 5126,
            "count" : 2113,
            "max" : [
                2.5309159755706787,
                1.666203498840332,
                1.7610559463500977
            ],
            "min" : [
                -2.26362943649292,
                -1.6639074087142944,
                -1.1450040340423584
            ],
            "type" : "VEC3"
        },
        {
            "bufferView" : 6,
            "componentType" : 5126,
            "count" : 2113,
            "type" : "VEC3"
        },
        {
            "bufferView" : 7,
            "componentType" : 5126,
            "count" : 2113,
            "type" : "VEC2"
        },
        {
            "bufferView" : 8,
            "componentType" : 5123,
            "count" : 3372,
            "type" : "SCALAR"
        },
        {
            "bufferView" : 9,
            "componentType" : 5126,
            "count" : 376,
            "max" : [
                0.1236460953950882,
                0.501579225063324,
                0.504826545715332
            ],
            "min" : [
                -0.2888404130935669,
                -0.4950844347476959,
                -0.4175601303577423
            ],
            "type" : "VEC3"
        },
        {
            "bufferView" : 10,
            "componentType" : 5126,
            "count" : 376,
            "type" : "VEC3"
        },
        {
            "bufferView" : 11,
            "componentType" : 5126,
            "count" : 376,
            "type" : "VEC2"
        },
        {
            "bufferView" : 12,
            "componentType" : 5123,
            "count" : 558,
            "type" : "SCALAR"
        },
        {
            "bufferView" : 13,
            "componentType" : 5126,
            "count" : 480,
            "max" : [
                0.6827462315559387,
                0.3283005654811859,
                0.6780000925064087
            ],
            "min" : [
                -0.6827465295791626,
                -0.3519964814186096,
                -0.6779999732971191
            ],
            "type" : "VEC3"
        },
        {
            "bufferView" : 14,
            "componentType" : 5126,
            "count" : 480,
            "type" : "VEC3"
        },
        {
            "bufferView" : 15,
            "componentType" : 5126,
            "count" : 480,
            "type" : "VEC2"
        },
        {
            "bufferView" : 16,
            "componentType" : 5123,
            "count" : 672,
            "type" : "SCALAR"
        },
        {
            "bufferView" : 17,
            "componentType" : 5126,
            "count" : 480,
            "max" : [
                0.6827463507652283,
                0.3283005654811859,
                0.6780000925064087
            ],
            "min" : [
                -0.682746410369873,
                -0.3519964814186096,
                -0.6779999732971191
            ],
            "type" : "VEC3"
        },
        {
            "bufferView" : 18,
            "componentType" : 5126,
            "count" : 480,
            "type" : "VEC3"
        },
        {
            "bufferView" : 19,
            "componentType" : 5126,
            "count" : 480,
            "type" : "VEC2"
        },
        {
            "bufferView" : 20,
            "componentType" : 5123,
            "count" : 672,
            "type" : "SCALAR"
        },
        {
            "bufferView" : 21,
            "componentType" : 5126,
            "count" : 480,
            "max" : [
                0.6827465891838074,
                0.35199612379074097,
                0.6780000925064087
            ],
            "min" : [
                -0.6827460527420044,
                -0.3283006250858307,
                -0.6779999732971191
            ],
            "type" : "VEC3"
        },
        {
            "bufferView" : 22,
            "componentType" : 5126,
            "count" : 480,
            "type" : "VEC3"
        },
        {
            "bufferView" : 23,
            "componentType" : 5126,
            "count" : 480,
            "type" : "VEC2"
        }
    ],
    "bufferViews" : [
        {
            "buffer" : 0,
            "byteLength" : 5760,
            "byteOffset" : 0
        },
        {
            "buffer" : 0,
            "byteLength" : 5760,
            "byteOffset" : 5760
        },
        {
            "buffer" : 0,
            "byteLength" : 3840,
            "byteOffset" : 11520
        },
        {
            "buffer" : 0,
            "byteLength" : 1344,
            "byteOffset" : 15360
        },
        {
            "buffer" : 0,
            "byteLength" : 992735,
            "byteOffset" : 16704
        },
        {
            "buffer" : 0,
            "byteLength" : 25356,
            "byteOffset" : 1009440
        },
        {
            "buffer" : 0,
            "byteLength" : 25356,
            "byteOffset" : 1034796
        },
        {
            "buffer" : 0,
            "byteLength" : 16904,
            "byteOffset" : 1060152
        },
        {
            "buffer" : 0,
            "byteLength" : 6744,
            "byteOffset" : 1077056
        },
        {
            "buffer" : 0,
            "byteLength" : 4512,
            "byteOffset" : 1083800
        },
        {
            "buffer" : 0,
            "byteLength" : 4512,
            "byteOffset" : 1088312
        },
        {
            "buffer" : 0,
            "byteLength" : 3008,
            "byteOffset" : 1092824
        },
        {
            "buffer" : 0,
            "byteLength" : 1116,
            "byteOffset" : 1095832
        },
        {
            "buffer" : 0,
            "byteLength" : 5760,
            "byteOffset" : 1096948
        },
        {
            "buffer" : 0,
            "byteLength" : 5760,
            "byteOffset" : 1102708
        },
        {
            "buffer" : 0,
            "byteLength" : 3840,
            "byteOffset" : 1108468
        },
        {
            "buffer" : 0,
            "byteLength" : 1344,
            "byteOffset" : 1112308
        },
        {
            "buffer" : 0,
            "byteLength" : 5760,
            "byteOffset" : 1113652
        },
        {
            "buffer" : 0,
            "byteLength" : 5760,
            "byteOffset" : 1119412
        },
        {
            "buffer" : 0,
            "byteLength" : 3840,
            "byteOffset" : 1125172
        },
        {
            "buffer" : 0,
            "byteLength" : 1344,
            "byteOffset" : 1129012
        },
        {
            "buffer" : 0,
            "byteLength" : 5760,
            "byteOffset" : 1130356
        },
        {
            "buffer" : 0,
            "byteLength" : 5760,
            "byteOffset" : 1136116
        },
        {
            "buffer" : 0,
            "byteLength" : 3840,
            "byteOffset" : 1141876
        }
    ],
    "buffers" : [
        {
            "byteLength" : 1145716,
            "uri" : "data:application/octet-stream;base64,"
        }
    ]
}
